M48
METRIC,LZ,000.000
;FILE_FORMAT=3:3
;TYPE=PLATED
;Layer: PTH_Through
;EasyEDA v6.5.48, 2025-03-05 09:15:20
;46f63332791e42a8a8f84cc4274b5eef,c1046fc99c6340e49b79c231b7c3a508,10
;Gerber Generator version 0.2
;Holesize 1 = 0.301 mm
T01C0.301
;Holesize 2 = 0.305 mm
T02C0.305
;Holesize 3 = 0.310 mm
T03C0.310
;Holesize 4 = 0.600 mm
T04C0.600
;Holesize 5 = 0.701 mm
T05C0.701
;Holesize 6 = 0.901 mm
T06C0.901
;Holesize 7 = 1.000 mm
T07C1.000
;Holesize 8 = 1.200 mm
T08C1.200
;Holesize 9 = 1.301 mm
T09C1.301
;Holesize 10 = 1.400 mm
T10C1.400
;Holesize 11 = 1.501 mm
T11C1.501
;Holesize 12 = 2.000 mm
T12C2.000
;Holesize 13 = 2.400 mm
T13C2.400
;Holesize 14 = 3.200 mm
T14C3.200
%
G05
G90
T01
X195918Y-094336
X195918Y-093336
T02
X194918Y-094336
X194918Y-093336
T03
X196596Y-089789
X202819Y-089789
X188214Y-089789
X148717Y-101092
X156337Y-101092
X163830Y-101092
X171577Y-101092
X133858Y-105537
X131318Y-103251
X139319Y-105537
X111760Y-101854
X107188Y-103124
X107188Y-095631
X111760Y-095123
X115570Y-093091
X135420Y-099568
X215646Y-099060
X215646Y-094361
X223138Y-104648
X230886Y-100076
X217550Y-082169
X222123Y-082169
X216916Y-081153
X222250Y-081153
X219582Y-086487
X230124Y-087630
X220818Y-091042
X217423Y-093472
X223901Y-094742
X234442Y-095504
X230471Y-018669
X214757Y-024130
X222062Y-024130
X219837Y-012065
X113284Y-061976
X176618Y-100965
X153289Y-077851
X161290Y-077851
X169164Y-077851
X176911Y-077851
X137160Y-013462
X117729Y-013589
X113792Y-016510
X112903Y-017399
X111633Y-019558
X112268Y-018415
X195114Y-085598
X195072Y-076708
X141605Y-033655
X142367Y-034798
X143256Y-036322
X144145Y-037465
X137541Y-024003
X137414Y-022733
X137414Y-021463
X135636Y-013843
X136906Y-016256
X117729Y-015113
X112903Y-060706
X098425Y-074676
X133350Y-053848
X134158Y-054610
X134857Y-055372
X135568Y-056007
X211328Y-083058
X123444Y-042418
X124079Y-043307
X124714Y-044196
X117602Y-021463
X125095Y-026162
X131191Y-018923
X148082Y-058801
X150495Y-058674
X153289Y-058547
X156210Y-058547
X148209Y-046355
X149225Y-048387
X150241Y-050165
X151384Y-052578
X138938Y-029210
X134747Y-029210
X114427Y-041656
X120015Y-032639
X101473Y-099187
X218694Y-072517
X100076Y-078867
X230632Y-067183
X094107Y-026924
X100965Y-034163
X084963Y-084201
X084963Y-092964
T04
X006519Y-090502G85X005419Y-090502
X006519Y-068502G85X005419Y-068502
T05
X218636Y-109492G85X218636Y-109092
X211386Y-109492G85X211386Y-109092
X212586Y-106622
X217436Y-106622
T06
X048006Y-081671
X048006Y-084211
X056642Y-081671
X056642Y-084211
X064770Y-081671
X064770Y-084211
X039878Y-081671
X039878Y-084211
T07
X048006Y-094370
X048006Y-099397
X056642Y-094370
X056642Y-099397
X064770Y-094370
X064770Y-099397
X014177Y-080645
X024177Y-080645
X039878Y-094370
X039878Y-099397
X070866Y-085327
X070866Y-090407
X070866Y-095487
X070866Y-098027
T08
X025147Y-069978
X025145Y-067436
X012447Y-072518
X012445Y-067436
X022673Y-092000
X015173Y-085800
T09
X040894Y-113157
X044704Y-113157
X048514Y-113157
X052324Y-113157
X056134Y-113157
X059944Y-113157
X063754Y-113157
X067564Y-113157
X151257Y-113665
X155067Y-113665
X158877Y-113665
X162687Y-113665
X166497Y-113665
X170307Y-113665
X174117Y-113665
X177927Y-113665
X040894Y-103378
X044704Y-103378
X048514Y-103378
X052324Y-103378
X056134Y-103378
X059944Y-103378
X063754Y-103378
X067564Y-103378
X151257Y-103251
X155067Y-103251
X158877Y-103251
X162687Y-103251
X166497Y-103251
X170307Y-103251
X174117Y-103251
X177927Y-103251
T10
X006831Y-013792
X006831Y-020542
X089789Y-113157
X085979Y-113157
X082169Y-113157
X200279Y-113665
X196469Y-113665
X192659Y-113665
X200279Y-103251
X196469Y-103251
X192659Y-103251
X089789Y-103378
X085979Y-103378
X082169Y-103378
T11
X014544Y-100203
X022794Y-100203
T12
X210058Y-091567
X029972Y-091567
X030005Y-005080
X210058Y-005080
T13
X082831Y-055042
X082831Y-049542
T14
X005969Y-005080
X005969Y-106553
X234950Y-005080
X234950Y-106580
M30
