G04 Layer: BoardOutlineLayer*
G04 EasyEDA v6.5.48, 2025-03-05 09:15:20*
G04 46f63332791e42a8a8f84cc4274b5eef,c1046fc99c6340e49b79c231b7c3a508,10*
G04 Gerber Generator version 0.2*
G04 Scale: 100 percent, Rotated: No, Reflected: No *
G04 Dimensions in millimeters *
G04 leading zeros omitted , absolute positions ,4 integer and 5 decimal *
%FSLAX45Y45*%
%MOMM*%

%ADD10C,0.2540*%
D10*
X11404091Y0D02*
G01*
X11468100Y0D01*
X11544300Y-76200D01*
X11544300Y-1079500D01*
X11607800Y-1143000D01*
X13296900Y-1143000D01*
X13347700Y-1092200D01*
X13347700Y-88392D01*
X13436091Y0D01*
X23499952Y-11149977D02*
G01*
X499998Y-11149977D01*
X2794000Y-4927600D02*
G01*
X2794000Y-8623300D01*
X3009900Y-1536700D02*
G01*
X3009900Y-4330700D01*
X2743200Y-1536700D02*
G01*
X2743200Y-4330700D01*
X3009900Y-4927600D02*
G01*
X3009900Y-8623300D01*
X13436091Y0D02*
G01*
X13530605Y0D01*
X13530605Y0D02*
G01*
X23499952Y0D01*
X11404091Y0D02*
G01*
X499998Y0D01*
X0Y-10649978D02*
G01*
X0Y-499998D01*
X23999952Y-499998D02*
G01*
X23999952Y-10649978D01*
G75*
G01*
X23499953Y0D02*
G02*
X23999952Y-499999I0J-499999D01*
G75*
G01*
X0Y-499999D02*
G02*
X499999Y0I499999J0D01*
G75*
G01*
X499999Y-11149978D02*
G02*
X0Y-10649979I0J499999D01*
G75*
G01*
X2794000Y-8623300D02*
G03*
X3009900Y-8623300I107950J0D01*
G75*
G01*
X2794000Y-4927600D02*
G02*
X3009900Y-4927600I107950J0D01*
G75*
G01*
X2743200Y-1536700D02*
G02*
X3009900Y-1536700I133350J0D01*
G75*
G01*
X2743200Y-4330700D02*
G03*
X3009900Y-4330700I133350J0D01*
G75*
G01*
X23999952Y-10649979D02*
G02*
X23499953Y-11149978I-499999J0D01*

%LPD*%
M02*
